# AST/ASF file generated using VICON BodyLanguage
# -----------------------------------------------
:version 1.10
:name VICON
:units
  mass 1.0
  length 0.45
  angle deg
:documentation
   .ast/.asf automatically generated from VICON data using
   VICON BodyBuilder and BodyLanguage model FoxedUp or BRILLIANT.MOD
:root
   order TX TY TZ RX RY RZ
   axis XYZ
   position 0 0 0  
   orientation 0 0 0 
:bonedata
  begin
     id 1 
     name lhipjoint
     direction 0.602128 -0.715006 0.355257 
     length 2.21237 
     axis 0 0 0  XYZ
  end
  begin
     id 2 
     name lfemur
     direction 0.34202 -0.939693 0  
     length 6.71649  
     axis 0 0 20  XYZ
    dof rx ry rz
    limits (-160.0 20.0)
           (-70.0 70.0)
           (-60.0 70.0)
  end
  begin
     id 3 
     name ltibia
     direction 0.34202 -0.939693 0   
     length 6.97123   
     axis 0 0 20   XYZ
    dof rx
    limits (-10.0 170.0)
  end
  begin
     id 4 
     name lfoot
     direction 0.0655697 -0.180151 0.981451   
     length 1.80924   
     axis -90 7.62852e-016 20   XYZ
    dof rx rz
    limits (-45.0 90.0)
           (-70.0 20.0)
  end
  begin
     id 5 
     name ltoes
     direction 1.53545e-011 -4.21827e-011 1   
     length 0.916331   
     axis -90 7.62852e-016 20   XYZ
    dof rx
    limits (-90.0 20.0)
  end
  begin
     id 6 
     name rhipjoint
     direction -0.625414 -0.698792 0.347201   
     length 2.2637  
     axis 0 0 0  XYZ 
  end
  begin
     id 7 
     name rfemur
     direction -0.34202 -0.939693 0   
     length 7.07595   
     axis 0 0 -20   XYZ
    dof rx ry rz
    limits (-160.0 20.0)
           (-70.0 70.0)
           (-70.0 60.0)
  end
  begin
     id 8 
     name rtibia
     direction -0.34202 -0.939693 0   
     length 7.22924   
     axis 0 0 -20   XYZ
    dof rx
    limits (-10.0 170.0)
 end
 begin
     id 9 
     name rfoot
     direction -0.0766747 -0.210662 0.974547   
     length 1.98482  
     axis -90 -7.62852e-016 -20   XYZ
    dof rx rz
    limits (-45.0 90.0)
           (-20.0 70.0)
  end
  begin
     id 10 
     name rtoes
     direction -1.53532e-011 -4.21867e-011 1   
     length 0.999842   
     axis -90 -7.62852e-016 -20   XYZ
    dof rx
    limits (-90.0 20.0)
  end
  begin
     id 11 
     name lowerback
     direction -0.0224668 0.997354 -0.0691422   
     length 2.09945   
     axis 0 0 0   XYZ
    dof rx ry rz
    limits (-20.0 45.0)
           (-30.0 30.0)
           (-30.0 30.0)
  end
  begin
     id 12 
     name upperback
     direction 0.0134698 0.998451 -0.0539888   
     length 2.09758   
     axis 0 0 0   XYZ
    dof rx ry rz
    limits (-20.0 45.0)
           (-30.0 30.0)
           (-30.0 30.0)
  end
  begin
     id 13 
     name thorax
     direction 0.0241905 0.99948 -0.0213333   
     length 2.10428   
     axis 0 0 0   XYZ
    dof rx ry rz
    limits (-20.0 45.0)
           (-30.0 30.0)
           (-30.0 30.0)
  end
  begin
     id 14 
     name lowerneck
     direction -0.00866847 0.995978 0.0891737   
     length 1.3959   
     axis 0 0 0   XYZ
    dof rx ry rz
    limits (-20.0 45.0)
           (-30.0 30.0)
           (-30.0 30.0)
  end
  begin
     id 15 
     name upperneck
     direction 0.0680679 0.992203 0.104404   
     length 1.39452   
     axis 0 0 0   XYZ
    dof rx ry rz
    limits (-20.0 45.0)
           (-30.0 30.0)
           (-30.0 30.0)
  end
  begin
     id 16
     name head
     direction 0.0242216 0.999358 0.0264054  
     length 1.40433  
     axis 0 0 0   XYZ
    dof rx ry rz
    limits (-20.0 45.0)
           (-30.0 30.0)
           (-30.0 30.0)
  end
  begin
     id 17 
     name lclavicle
     direction 0.929368 0.362991 -0.0671771  
     length 3.04887  
     axis 0 0 0   XYZ
    dof ry rz
    limits (-20.0 10.0)
           (0.0 20.0)
  end
  begin
     id 18 
     name lhumerus
     direction 1 -4.48967e-011 -7.13741e-028   
     length 4.77195   
     axis -180 -30 -90   XYZ
    dof rx ry rz
    limits (-60.0 90.0)
           (-90.0 90.0)
           (-90.0 90.0)
  end
  begin
     id 19
     name lradius
     direction 1 -4.48977e-011 3.60404e-027   
     length 2.98444   
     axis -180 -30 -90   XYZ
    dof rx
    limits (-10.0 170.0)
  end
  begin
     id 20
     name lwrist
     direction 1 -4.48997e-011 7.54877e-027   
     length 1.49222   
     axis -7.18178e-015 90 90   XYZ
    dof ry
    limits (-180.0 0.0)
 end
  begin
     id 21 
     name lhand
     direction 1 -4.489e-011 1.51105e-026   
     length 0.992285   
     axis -9.63605e-015 90 90   XYZ
    dof rx rz
    limits (-90.0 90.0)
           (-45.0 45.0)
  end
  begin
     id 22 
     name lfingers
     direction 1 -4.48998e-011 3.01948e-026   
     length 0.800006   
     axis -1.92718e-014 90 90   XYZ
    dof rx
    limits (0.0 90.0)
  end
  begin
     id 23
     name lthumb
     direction 0.707107 -6.34881e-011 0.707107   
     length 1.14865   
     axis -90 45 -3.53137e-014   XYZ
    dof rx rz
    limits (-45.0 45.0)
           (-45.0 45.0)
  end
  begin
     id 24 
     name rclavicle
     direction -0.945672 0.324529 0.0196374   
     length 3.4236  
     axis 0 0 0   XYZ 
    dof ry rz
    limits (-10.0 20.0)
           (-20.0 0.0)
  end
  begin
     id 25 
     name rhumerus
     direction -1 -4.4896e-011 1.02757e-029  
     length 4.62052   
     axis -180 30 90   XYZ
    dof rx ry rz
    limits (-90.0 60.0)
           (-90.0 90.0)
           (-90.0 90.0)
  end
  begin
     id 26 
     name rradius
     direction -1 -4.48982e-011 3.85962e-027   
     length 2.95332   
     axis -180 30 90   XYZ
    dof rx
    limits (-10.0 170.0)
  end
  begin
     id 27 
     name rwrist
     direction -1 -4.48961e-011 7.55118e-027   
     length 1.47666   
     axis -7.18178e-015 -90 -90   XYZ
    dof ry
    limits (-180.0 0.0)
  end
  begin
     id 28
     name rhand
     direction -1 -4.48984e-011 1.50994e-026   
     length 0.990956   
     axis -9.63605e-015 -90 -90   XYZ
    dof rx rz
    limits (-90.0 90.0)
           (-45.0 45.0)
  end
  begin
     id 29
     name rfingers
     direction -1 -4.4892e-011 3.02158e-026   
     length 0.798934   
     axis -1.92718e-014 -90 -90   XYZ
    dof rx
    limits (0.0 90.0)
  end
  begin
     id 30
     name rthumb
     direction -0.707107 -6.34916e-011 0.707107   
     length 1.14711   
     axis -90 -45 3.53137e-014   XYZ
    dof rx rz
    limits (-45.0 45.0)
           (-45.0 45.0)
  end
:hierarchy
  begin
    root lhipjoint rhipjoint lowerback
    lhipjoint lfemur
    lfemur ltibia
    ltibia lfoot
    lfoot ltoes
    rhipjoint rfemur
    rfemur rtibia
    rtibia rfoot
    rfoot rtoes
    lowerback upperback
    upperback thorax
    thorax lowerneck lclavicle rclavicle
    lowerneck upperneck
    upperneck head
    lclavicle lhumerus
    lhumerus lradius
    lradius lwrist
    lwrist lhand lthumb
    lhand lfingers
    rclavicle rhumerus
    rhumerus rradius
    rradius rwrist
    rwrist rhand rthumb
    rhand rfingers
  end

#!OML:ASF H:\ManfredObstacles\Project 1\Capture day 1\Session 1\Male.ASF
:FULLY-SPECIFIED
:DEGREES
338
root 0.477451 15.3562 0.0704888 -171.243 -3.82218 -182.072
lowerback 4.6829 -1.72549 -4.39431
upperback 4.59898 -2.75073 1.07872
thorax 2.37905 -1.65101 3.63444
lowerneck -0.179501 -2.58008 -6.36389
upperneck 8.00072 -3.54574 7.59825
head 2.93424 -1.62555 3.58849
rclavicle 4.40308e-014 -1.50082e-014
rhumerus -29.1077 2.26387 -82.9407
rradius 62.0779
rwrist 14.0708
rhand -4.84937 -8.79566
rfingers 7.12502
rthumb 20.9381 -37.6856
lclavicle 4.40308e-014 -1.50082e-014
lhumerus -17.5955 -20.1019 82.5122
lradius 71.5017
lwrist -8.65022
lhand -24.625 8.38642
lfingers 7.12502
lthumb 1.87371 38.3579
rfemur -51.1182 -6.34903 18.787
rtibia 84.1405
rfoot -16.2351 2.37845
rtoes -13.2204
lfemur -32.1852 -2.41355 -26.2237
ltibia 53.4253
lfoot -18.3952 -7.84825
ltoes 5.97594
339
root 0.461946 15.5222 -0.133163 -170.843 -4.07089 -182.144
lowerback 4.24271 -1.87704 -4.4551
upperback 4.49484 -2.91243 0.932911
thorax 2.52811 -1.72289 3.50365
lowerneck -0.242629 -2.63681 -6.30123
upperneck 8.33123 -3.62723 7.77863
head 3.07046 -1.64686 3.64243
rclavicle -1.94312e-014 -5.96354e-016
rhumerus -30.1764 2.03359 -82.9592
rradius 60.808
rwrist 14.651
rhand -4.71448 -8.43838
rfingers 7.12502
rthumb 21.0677 -37.3139
lclavicle -1.94312e-014 -5.96354e-016
lhumerus -17.6022 -19.8951 82.8297
lradius 71.923
lwrist -8.29814
lhand -24.2227 8.55664
lfingers 7.12502
lthumb 2.26224 38.5244
rfemur -51.8921 -6.55168 18.8932
rtibia 83.241
rfoot -17.9683 2.78326
rtoes -14.0235
lfemur -30.0293 -2.37029 -26.0707
ltibia 50.2304
lfoot -18.4315 -8.00253
ltoes 0.990817
340
root 0.45623 15.6803 -0.345651 -170.768 -4.39514 -182.221
lowerback 3.9521 -2.05221 -4.65586
upperback 4.55841 -3.13407 0.783432
thorax 2.78133 -1.84381 3.44765
lowerneck -0.147553 -2.65271 -6.21379
upperneck 8.74711 -3.69967 8.30299
head 2.88109 -1.63347 3.43694
rclavicle 1.50145e-014 1.57785e-015
rhumerus -31.2999 1.66497 -83.05
rradius 59.4873
rwrist 15.3174
rhand -4.35189 -8.52092
rfingers 7.12502
rthumb 21.416 -37.3573
lclavicle 1.50145e-014 1.57785e-015
lhumerus -17.5826 -19.5009 83.1744
lradius 72.0862
lwrist -8.12113
lhand -23.7824 8.74717
lfingers 7.12502
lthumb 2.68747 38.71
rfemur -52.2033 -6.9468 19.0245
rtibia 81.662
rfoot -19.0045 3.98976
rtoes -10.7458
lfemur -27.5411 -2.24363 -25.8897
ltibia 47.0926
lfoot -17.6657 -8.58115
ltoes -1.07644
341
root 0.458382 15.8184 -0.549846 -170.583 -4.5391 -182.035
lowerback 3.64729 -2.1984 -4.77827
upperback 4.55657 -3.30958 0.7531
thorax 2.97337 -1.93612 3.47017
lowerneck 0.0213759 -2.62429 -6.19133
upperneck 8.98627 -3.67393 8.54406
head 2.92539 -1.60179 3.51103
rclavicle -7.74018e-015 -5.51627e-015
rhumerus -32.4477 1.38 -83.085
rradius 57.9985
rwrist 15.4893
rhand -4.08476 -8.59831
rfingers 7.12502
rthumb 21.6726 -37.4053
lclavicle -7.74018e-015 -5.51627e-015
lhumerus -17.5012 -18.9242 83.643
lradius 71.7833
lwrist -8.11619
lhand -23.4999 8.82084
lfingers 7.12502
lthumb 2.96033 38.78
rfemur -52.6897 -6.89579 19.3744
rtibia 79.1418
rfoot -20.1888 5.06235
rtoes -7.10499
lfemur -25.403 -1.87135 -25.4708
ltibia 44.119
lfoot -17.1849 -8.74235
ltoes -6.46916
342
root 0.457502 15.9357 -0.756129 -170.342 -4.76094 -181.944
lowerback 3.21364 -2.28068 -4.80612
upperback 4.57212 -3.38827 0.671889
thorax 3.23752 -1.97741 3.37909
lowerneck 0.23124 -2.69298 -6.12031
upperneck 9.21704 -3.77371 8.68708
head 2.96775 -1.63475 3.54361
rclavicle 2.64881e-014 7.7526e-015
rhumerus -33.6215 0.635233 -82.8963
rradius 56.3025
rwrist 15.6299
rhand -3.96966 -8.34372
rfingers 7.12502
rthumb 21.7831 -37.1379
lclavicle 2.64881e-014 7.7526e-015
lhumerus -17.1935 -18.5891 84.3215
lradius 70.9124
lwrist -8.34486
lhand -23.3461 8.71852
lfingers 7.12502
lthumb 3.10891 38.6756
rfemur -53.1361 -7.02937 19.6744
rtibia 76.1354
rfoot -21.1348 5.15489
rtoes -5.90399
lfemur -23.3801 -1.54749 -25.2283
ltibia 41.2684
lfoot -16.0019 -9.01938
ltoes -5.73864
343
root 0.451375 16.035 -0.96886 -170.196 -5.05736 -181.967
lowerback 2.77108 -2.36994 -4.85293
upperback 4.66295 -3.48127 0.564018
thorax 3.58642 -2.03247 3.2667
lowerneck 0.249578 -2.76076 -6.01058
upperneck 9.58958 -3.86634 8.75603
head 3.08181 -1.6583 3.54523
rclavicle 8.15017e-015 -2.98177e-015
rhumerus -34.8278 -0.45902 -82.5643
rradius 54.5802
rwrist 16.324
rhand -3.59848 -8.21132
rfingers 7.12502
rthumb 22.1395 -36.9637
lclavicle 8.15017e-015 -2.98177e-015
lhumerus -16.785 -18.2442 85.1062
lradius 69.6869
lwrist -8.51714
lhand -23.1805 8.46594
lfingers 7.12502
lthumb 3.26883 38.4206
rfemur -53.3334 -7.31603 19.8054
rtibia 72.633
rfoot -22.0095 4.5962
rtoes -7.65154
lfemur -21.2427 -1.46068 -25.15
ltibia 38.4845
lfoot -15.0806 -8.98444
ltoes -5.75032
344
root 0.446896 16.1296 -1.18828 -170.027 -5.4366 -181.979
lowerback 2.30569 -2.63752 -5.0701
upperback 4.73489 -3.81113 0.510109
thorax 3.96825 -2.21257 3.29713
lowerneck 0.0739519 -2.68349 -5.82862
upperneck 10.0734 -3.76363 8.83137
head 3.24512 -1.57461 3.54148
rclavicle 1.43125e-014 -1.86858e-014
rhumerus -36.1284 -1.25381 -82.3043
rradius 52.9403
rwrist 17.2976
rhand -3.17771 -8.15247
rfingers 7.12502
rthumb 22.5434 -36.8564
lclavicle 1.43125e-014 -1.86858e-014
lhumerus -16.5822 -17.5175 85.7397
lradius 68.4592
lwrist -8.51899
lhand -22.935 8.3046
lfingers 7.12502
lthumb 3.50585 38.2555
rfemur -53.3701 -7.50749 19.833
rtibia 68.7262
rfoot -22.5294 4.04244
rtoes -8.07987
lfemur -19.221 -1.53453 -25.0473
ltibia 35.8773
lfoot -14.3264 -8.77838
ltoes -6.62026
345
root 0.443126 16.2136 -1.42166 -169.84 -6.08908 -182.556
lowerback 1.80931 -3.00563 -5.73311
upperback 4.78254 -4.26455 0.280576
thorax 4.38025 -2.46816 3.38151
lowerneck -0.07289 -2.65255 -5.5875
upperneck 10.5275 -3.72121 8.84115
head 3.39778 -1.52157 3.50644
rclavicle -1.99779e-014 1.05356e-014
rhumerus -37.6548 -2.12436 -81.967
rradius 51.3112
rwrist 18.1534
rhand -3.09106 -7.92096
rfingers 7.12502
rthumb 22.6266 -36.6147
lclavicle -1.99779e-014 1.05356e-014
lhumerus -16.5746 -16.9592 86.3329
lradius 67.256
lwrist -8.68951
lhand -22.6952 8.19787
lfingers 7.12502
lthumb 3.73742 38.1448
rfemur -53.1926 -8.02275 19.1179
rtibia 64.5909
rfoot -22.9403 3.83253
rtoes -8.77202
lfemur -17.1147 -1.90619 -25.5287
ltibia 33.3232
lfoot -13.5585 -8.70066
ltoes -7.34647
346
root 0.445446 16.2715 -1.62556 -169.427 -6.40382 -182.097
lowerback 1.43881 -3.18734 -5.38405
upperback 4.62827 -4.46813 0.357428
thorax 4.4266 -2.54419 3.24285
lowerneck -0.230114 -2.6633 -5.49499
upperneck 10.9574 -3.73444 8.85436
head 3.55227 -1.50309 3.49522
rclavicle 5.86415e-015 -7.15625e-015
rhumerus -39.1706 -3.12732 -81.4096
rradius 49.5378
rwrist 18.8537
rhand -3.21322 -7.69884
rfingers 7.12502
rthumb 22.5093 -36.4069
lclavicle 5.86415e-015 -7.15625e-015
lhumerus -16.6328 -16.5145 87.0296
lradius 66.0203
lwrist -9.0431
lhand -22.4671 7.94875
lfingers 7.12502
lthumb 3.95775 37.8917
rfemur -53.3506 -7.57136 19.3916
rtibia 60.1457
rfoot -22.8492 3.43937
rtoes -10.5824
lfemur -15.6894 -2.1558 -24.8583
ltibia 31.005
lfoot -12.8592 -8.47326
ltoes -8.05969
347
root 0.444733 16.3196 -1.85336 -169.241 -7.14673 -181.92
lowerback 1.01037 -3.53575 -5.26321
upperback 4.58994 -4.90089 0.426167
thorax 4.6688 -2.75449 3.20006
lowerneck -0.285094 -2.62087 -5.50246
upperneck 11.31 -3.67719 8.92534
head 3.66403 -1.45486 3.52234
rclavicle -1.47101e-014 -3.97569e-015
rhumerus -40.7618 -4.08182 -80.6927
rradius 47.9052
rwrist 19.5521
rhand -3.06202 -7.64623
rfingers 7.12502
rthumb 22.6544 -36.3366
lclavicle -1.47101e-014 -3.97569e-015
lhumerus -16.8517 -16.041 87.7504
lradius 64.8557
lwrist -9.33835
lhand -22.2466 7.67114
lfingers 7.12502
lthumb 4.17061 37.6101
rfemur -52.9188 -7.74261 19.3394
rtibia 55.6472
rfoot -22.5678 3.77244
rtoes -8.69708
lfemur -13.928 -2.61939 -24.4562
ltibia 28.8665
lfoot -12.3694 -8.57576
ltoes -8.98662
348
root 0.448638 16.3531 -2.07853 -169.105 -7.67172 -181.704
lowerback 0.613342 -3.79349 -5.18807
upperback 4.54147 -5.21515 0.490263
thorax 4.87423 -2.90635 3.18162
lowerneck -0.241843 -2.573 -5.41832
upperneck 11.5826 -3.60551 8.8843
head 3.73125 -1.40482 3.50087
rclavicle 5.56597e-014 7.95139e-016
rhumerus -42.6179 -5.10239 -79.8803
rradius 46.6177
rwrist 20.2508
rhand -2.63141 -7.68773
rfingers 7.12502
rthumb 23.0677 -36.327
lclavicle 5.56597e-014 7.95139e-016
lhumerus -17.1811 -15.7097 88.4314
lradius 63.6881
lwrist -9.61207
lhand -21.9625 7.40368
lfingers 7.12502
lthumb 4.445 37.337
rfemur -52.3957 -7.55119 19.2182
rtibia 51.136
rfoot -21.5514 3.91973
rtoes -9.63817
lfemur -12.3067 -2.82891 -24.0383
ltibia 27.1212
lfoot -12.0954 -8.71166
ltoes -10.1731
349
root 0.457386 16.3646 -2.30462 -169.004 -8.28525 -181.453
lowerback 0.115829 -3.72724 -4.70961
upperback 4.64234 -5.10571 0.489759
thorax 5.20609 -2.83817 2.88156
lowerneck -0.507815 -2.87147 -5.80849
upperneck 11.7763 -4.03227 9.2889
head 3.88014 -1.60199 3.673
rclavicle -1.53064e-014 -7.55382e-015
rhumerus -44.436 -7.17227 -78.6209
rradius 45.2863
rwrist 20.8325
rhand -2.48542 -7.7052
rfingers 7.12502
rthumb 23.2077 -36.3269
lclavicle -1.53064e-014 -7.55382e-015
lhumerus -17.1459 -16.4456 89.3461
lradius 62.3376
lwrist -9.84308
lhand -21.5206 7.09617
lfingers 7.12502
lthumb 4.87163 37.0202
rfemur -51.7809 -7.40686 19.1079
rtibia 46.7943
rfoot -20.8909 4.04788
rtoes -10.7198
lfemur -10.6838 -3.04142 -23.5445
ltibia 25.3784
lfoot -11.6512 -8.83928
ltoes -10.8097
350
root 0.474673 16.3599 -2.53509 -169.069 -8.81643 -181.21
lowerback -0.167744 -4.03457 -4.85219
upperback 4.71624 -5.50643 0.650164
thorax 5.51492 -3.05418 3.07442
lowerneck -0.386213 -2.7639 -5.7267
upperneck 11.8418 -3.87792 9.17325
head 3.86392 -1.52622 3.6317
rclavicle 8.05078e-014 -7.95139e-015
rhumerus -45.8884 -8.10434 -77.6434
rradius 43.6538
rwrist 21.4227
rhand -2.40086 -7.67129
rfingers 7.12502
rthumb 23.2889 -36.2828
lclavicle 8.05078e-014 -7.95139e-015
lhumerus -17.4164 -15.9487 89.8923
lradius 61.034
lwrist -10.047
lhand -21.0061 6.88404
lfingers 7.12502
lthumb 5.36849 36.796
rfemur -50.8757 -7.08272 18.9341
rtibia 42.7626
rfoot -20.377 3.9967
rtoes -11.6075
lfemur -8.83641 -3.19682 -23.0272
ltibia 23.5377
lfoot -11.1596 -9.06476
ltoes -10.0917
351
root 0.502945 16.3496 -2.77111 -169.236 -9.27205 -181.002
lowerback -0.379257 -4.28582 -5.10252
upperback 4.80563 -5.83348 0.768148
thorax 5.80374 -3.2393 3.28843
lowerneck -0.155296 -2.67531 -5.53703
upperneck 11.9074 -3.74803 9.05511
head 3.82969 -1.45694 3.57186
rclavicle -1.49089e-014 -3.57812e-015
rhumerus -47.3786 -9.34931 -76.4829
rradius 42.0434
rwrist 22.2164
rhand -1.87488 -7.77521
rfingers 7.12502
rthumb 23.7934 -36.3219
lclavicle -1.49089e-014 -3.57812e-015
lhumerus -17.6175 -15.561 90.3182
lradius 59.5668
lwrist -10.2761
lhand -20.5254 6.7657
lfingers 7.12502
lthumb 5.83261 36.6654
rfemur -49.7881 -6.39296 18.5823
rtibia 39.0964
rfoot -19.8745 3.40677
rtoes -12.6266
lfemur -6.79455 -3.26688 -22.5197
ltibia 21.6432
lfoot -10.6115 -9.5344
ltoes -7.92836
352
root 0.514577 16.3292 -3.01084 -169.259 -9.97967 -181.738
lowerback -0.637297 -4.53158 -5.76853
upperback 4.90633 -6.12173 0.529705
thorax 6.1387 -3.41745 3.35457
lowerneck -0.156379 -2.73778 -5.5264
upperneck 12.1807 -3.83126 9.11164
head 3.91916 -1.48064 3.58668
rclavicle -3.97569e-014 7.95139e-016
rhumerus -48.8206 -11.1411 -75.0471
rradius 40.2724
rwrist 23.0786
rhand -1.36754 -8.08564
rfingers 7.12502
rthumb 24.2799 -36.5681
lclavicle -3.97569e-014 7.95139e-016
lhumerus -17.7421 -15.5683 90.788
lradius 58.0088
lwrist -10.6848
lhand -20.1148 6.56691
lfingers 7.12502
lthumb 6.22903 36.4553
rfemur -48.6943 -6.58385 17.389
rtibia 35.8785
rfoot -19.4604 3.07585
rtoes -13.6189
lfemur -4.62212 -3.53071 -23.0551
ltibia 19.579
lfoot -9.75592 -10.1644
ltoes -5.38853
